<svg xmlns="http://www.w3.org/2000/svg" xmlns:xlink="http://www.w3.org/1999/xlink" width="200" height="20" zoomAndPan="magnify" viewBox="0 0 375 374.999991" preserveAspectRatio="xMidYMid meet" version="1.0"><defs><g/></defs><g fill="#00bf63" fill-opacity="1"><g transform="translate(10.875064, 167.294022)"><g><path d="M -0.148438 0 L 13.351562 0 L 17.101562 -19.425781 L 29.625 -19.425781 C 40.800781 -19.425781 48.898438 -25.273438 51.074219 -36.523438 C 53.25 -47.773438 47.398438 -53.625 36.226562 -53.625 L 10.199219 -53.625 Z M 19.199219 -30.449219 L 21.601562 -42.601562 L 31.273438 -42.601562 C 35.925781 -42.601562 38.476562 -41.023438 37.574219 -36.523438 C 36.75 -32.023438 33.523438 -30.449219 28.875 -30.449219 Z M 19.199219 -30.449219 "/></g></g></g><g fill="#00bf63" fill-opacity="1"><g transform="translate(59.625015, 167.294022)"><g><path d="M 17.550781 1.199219 C 30.300781 1.199219 39.675781 -7.273438 42 -19.199219 C 44.324219 -31.125 38.25 -39.601562 25.5 -39.601562 C 12.675781 -39.601562 3.300781 -31.125 0.976562 -19.199219 C -1.351562 -7.273438 4.726562 1.199219 17.550781 1.199219 Z M 19.273438 -7.800781 C 13.949219 -7.800781 11.550781 -11.773438 12.976562 -19.199219 C 14.398438 -26.625 18.449219 -30.601562 23.773438 -30.601562 C 29.023438 -30.601562 31.425781 -26.625 30 -19.199219 C 28.574219 -11.773438 24.523438 -7.800781 19.273438 -7.800781 Z M 19.273438 -7.800781 "/></g></g></g><g fill="#00bf63" fill-opacity="1"><g transform="translate(102.674973, 167.294022)"><g><path d="M 6.976562 0 L 18.226562 0 L 30.375 -24.300781 L 30.523438 -24.300781 L 33.226562 0 L 44.476562 0 L 62.699219 -38.398438 L 50.699219 -38.398438 L 40.351562 -15 L 40.199219 -15 L 38.476562 -38.398438 L 27.976562 -38.398438 L 17.101562 -15 L 16.949219 -15 L 15.75 -38.398438 L 3.75 -38.398438 Z M 6.976562 0 "/></g></g></g><g fill="#00bf63" fill-opacity="1"><g transform="translate(161.774915, 167.294022)"><g><path d="M 17.398438 1.199219 C 27.824219 1.199219 34.800781 -3.898438 38.398438 -11.625 L 26.476562 -11.625 C 25.425781 -9.75 23.023438 -7.800781 18.898438 -7.800781 C 14.625 -7.800781 11.25 -10.648438 12.300781 -16.050781 L 39.898438 -16.050781 C 42.601562 -30 37.800781 -39.601562 24.675781 -39.601562 C 12.449219 -39.601562 3.148438 -30.898438 0.898438 -19.199219 C -1.425781 -7.199219 4.648438 1.199219 17.398438 1.199219 Z M 13.726562 -23.324219 C 14.699219 -28.648438 18.449219 -31.351562 23.023438 -31.351562 C 27.601562 -31.351562 30.300781 -28.648438 29.324219 -23.324219 Z M 13.726562 -23.324219 "/></g></g></g><g fill="#00bf63" fill-opacity="1"><g transform="translate(203.324873, 167.294022)"><g><path d="M -0.976562 0 L 11.023438 0 L 14.550781 -17.851562 C 16.125 -26.023438 23.324219 -29.398438 29.25 -28.273438 L 29.398438 -28.273438 L 31.425781 -38.773438 C 30.148438 -39.074219 29.25 -39.074219 28.199219 -39.074219 C 24 -39.074219 20.175781 -36.375 17.476562 -32.101562 L 17.324219 -32.101562 L 18.523438 -38.398438 L 6.523438 -38.398438 Z M -0.976562 0 "/></g></g></g><g fill="#ff7033" fill-opacity="1"><g transform="translate(232.195366, 167.294022)"><g><path d="M -0.148438 0 L 13.351562 0 L 17.101562 -19.425781 L 29.625 -19.425781 C 40.800781 -19.425781 48.898438 -25.273438 51.074219 -36.523438 C 53.25 -47.773438 47.398438 -53.625 36.226562 -53.625 L 10.199219 -53.625 Z M 19.199219 -30.449219 L 21.601562 -42.601562 L 31.273438 -42.601562 C 35.925781 -42.601562 38.476562 -41.023438 37.574219 -36.523438 C 36.75 -32.023438 33.523438 -30.449219 28.875 -30.449219 Z M 19.199219 -30.449219 "/></g></g></g><g fill="#ff7033" fill-opacity="1"><g transform="translate(280.945317, 167.294022)"><g><path d="M 9.601562 1.199219 C 14.699219 1.199219 19.648438 -1.199219 22.726562 -4.050781 L 22.875 -4.050781 C 22.351562 -1.351562 23.324219 1.199219 28.726562 1.199219 C 31.125 1.199219 33.375 0.898438 35.925781 0 L 36.523438 -2.851562 C 35.023438 -2.851562 34.425781 -3.675781 34.800781 -5.699219 L 38.25 -23.324219 C 40.574219 -35.398438 35.398438 -39.601562 24.601562 -39.601562 C 12.074219 -39.601562 5.625 -33.375 3.824219 -26.023438 L 15.074219 -26.023438 C 16.125 -29.699219 18.523438 -31.351562 22.875 -31.351562 C 26.175781 -31.351562 27.523438 -30 27.074219 -27.75 C 26.476562 -24.523438 21.449219 -23.773438 16.273438 -22.800781 C 6.976562 -21 0.675781 -17.476562 -0.824219 -9.824219 C -2.101562 -3.375 1.5 1.199219 9.601562 1.199219 Z M 15.449219 -7.050781 C 12.523438 -7.050781 10.875 -8.398438 11.476562 -11.550781 C 11.925781 -13.949219 13.875 -15.898438 18.824219 -16.949219 C 21.75 -17.550781 23.699219 -18.074219 25.351562 -18.675781 L 24.449219 -14.023438 C 23.699219 -10.351562 20.625 -7.050781 15.449219 -7.050781 Z M 15.449219 -7.050781 "/></g></g></g><g fill="#ff7033" fill-opacity="1"><g transform="translate(322.495275, 167.294022)"><g><path d="M 5.699219 13.273438 C 13.800781 13.273438 17.925781 10.574219 23.101562 0.75 L 43.800781 -38.398438 L 31.800781 -38.398438 L 19.648438 -13.199219 L 19.5 -13.199219 L 15.675781 -38.398438 L 3.675781 -38.398438 L 9.824219 -5.550781 C 10.351562 -2.175781 10.125 0.226562 8.625 1.949219 C 6.976562 3.898438 4.199219 4.273438 1.050781 3.523438 L 0.898438 3.523438 L -0.824219 12.523438 C 1.574219 13.050781 3.675781 13.273438 5.699219 13.273438 Z M 5.699219 13.273438 "/></g></g></g><g fill="#142f50" fill-opacity="1"><g transform="translate(273.934781, 180.797991)"><g><path d="M -0.015625 0 L 2.683594 0 L 3.375 -2.234375 L 7.050781 -2.234375 L 7.738281 0 L 10.441406 0 L 6.570312 -10.726562 L 3.871094 -10.726562 Z M 3.988281 -4.289062 L 5.203125 -8.25 L 5.234375 -8.25 L 6.449219 -4.289062 Z M 3.988281 -4.289062 "/></g></g></g><g fill="#142f50" fill-opacity="1"><g transform="translate(285.454771, 180.797991)"><g><path d="M 1.304688 0 L 3.703125 0 L 3.703125 -5.878906 L 5.039062 -5.878906 L 5.039062 -7.679688 L 3.703125 -7.679688 L 3.703125 -8.011719 C 3.703125 -8.910156 4.019531 -8.910156 5.039062 -8.910156 L 5.039062 -10.710938 C 4.605469 -10.800781 4.230469 -10.859375 3.554688 -10.859375 C 1.800781 -10.859375 1.304688 -9.929688 1.304688 -8.203125 L 1.304688 -7.679688 L 0.164062 -7.679688 L 0.164062 -5.878906 L 1.304688 -5.878906 Z M 1.304688 0 "/></g></g></g><g fill="#142f50" fill-opacity="1"><g transform="translate(291.754768, 180.797991)"><g><path d="M 0.585938 0 L 2.984375 0 L 2.984375 -3.570312 C 2.984375 -5.203125 4.289062 -5.878906 5.519531 -5.65625 L 5.550781 -5.65625 L 5.550781 -7.753906 C 5.28125 -7.816406 5.101562 -7.816406 4.890625 -7.816406 C 4.050781 -7.816406 3.390625 -7.273438 3.015625 -6.421875 L 2.984375 -6.421875 L 2.984375 -7.679688 L 0.585938 -7.679688 Z M 0.585938 0 "/></g></g></g><g fill="#142f50" fill-opacity="1"><g transform="translate(298.56476, 180.797991)"><g><path d="M 1.785156 -8.59375 C 2.460938 -8.59375 2.984375 -8.953125 2.984375 -9.660156 C 2.984375 -10.351562 2.460938 -10.726562 1.785156 -10.726562 C 1.109375 -10.726562 0.585938 -10.351562 0.585938 -9.660156 C 0.585938 -8.953125 1.109375 -8.59375 1.785156 -8.59375 Z M 0.585938 0 L 2.984375 0 L 2.984375 -7.679688 L 0.585938 -7.679688 Z M 0.585938 0 "/></g></g></g><g fill="#142f50" fill-opacity="1"><g transform="translate(303.199754, 180.797991)"><g><path d="M 4.199219 0.238281 C 6.40625 0.238281 7.785156 -1.078125 7.90625 -2.894531 L 5.550781 -2.894531 C 5.476562 -2.203125 5.144531 -1.558594 4.183594 -1.558594 C 3.179688 -1.558594 2.640625 -2.398438 2.640625 -3.839844 C 2.640625 -5.28125 3.195312 -6.121094 4.183594 -6.121094 C 5.144531 -6.121094 5.476562 -5.429688 5.550781 -4.816406 L 7.90625 -4.816406 C 7.710938 -6.601562 6.375 -7.921875 4.140625 -7.921875 C 1.769531 -7.921875 0.238281 -6.226562 0.238281 -3.839844 C 0.238281 -1.441406 1.769531 0.238281 4.199219 0.238281 Z M 4.199219 0.238281 "/></g></g></g><g fill="#142f50" fill-opacity="1"><g transform="translate(312.364743, 180.797991)"><g><path d="M 2.746094 0.238281 C 3.765625 0.238281 4.664062 -0.238281 5.160156 -0.808594 L 5.191406 -0.808594 C 5.191406 -0.269531 5.488281 0.238281 6.570312 0.238281 C 7.050781 0.238281 7.484375 0.179688 7.964844 0 L 7.964844 -0.570312 C 7.664062 -0.570312 7.515625 -0.734375 7.515625 -1.140625 L 7.515625 -4.664062 C 7.515625 -7.078125 6.316406 -7.921875 4.15625 -7.921875 C 1.648438 -7.921875 0.601562 -6.675781 0.523438 -5.203125 L 2.773438 -5.203125 C 2.851562 -5.941406 3.269531 -6.269531 4.140625 -6.269531 C 4.800781 -6.269531 5.113281 -6 5.113281 -5.550781 C 5.113281 -4.90625 4.140625 -4.753906 3.148438 -4.558594 C 1.351562 -4.199219 0.226562 -3.496094 0.226562 -1.964844 C 0.226562 -0.675781 1.125 0.238281 2.746094 0.238281 Z M 3.585938 -1.410156 C 3 -1.410156 2.625 -1.679688 2.625 -2.308594 C 2.625 -2.789062 2.941406 -3.179688 3.886719 -3.390625 C 4.441406 -3.511719 4.816406 -3.613281 5.113281 -3.734375 L 5.113281 -2.804688 C 5.113281 -2.070312 4.621094 -1.410156 3.585938 -1.410156 Z M 3.585938 -1.410156 "/></g></g></g></svg>